<svg width="26" height="26" viewBox="0 0 26 26" fill="none" xmlns="http://www.w3.org/2000/svg">
<circle cx="13" cy="13" r="13" fill="#FFBE59"/>
<path d="M18.7461 10.4746C18.8477 10.3984 19 10.4746 19 10.6016V15.7812C19 16.4668 18.4414 17 17.7812 17H7.21875C6.5332 17 6 16.4668 6 15.7812V10.6016C6 10.4746 6.12695 10.3984 6.22852 10.4746C6.8125 10.9316 7.54883 11.4902 10.1387 13.3691C10.6719 13.75 11.5859 14.5879 12.5 14.5879C13.3887 14.5879 14.3281 13.75 14.8359 13.3691C17.4258 11.4902 18.1621 10.9316 18.7461 10.4746ZM12.5 13.75C11.8906 13.7754 11.0527 13.0137 10.6211 12.709C7.24414 10.2715 6.99023 10.043 6.22852 9.43359C6.07617 9.33203 6 9.1543 6 8.95117V8.46875C6 7.80859 6.5332 7.25 7.21875 7.25H17.7812C18.4414 7.25 19 7.80859 19 8.46875V8.95117C19 9.1543 18.8984 9.33203 18.7461 9.43359C17.9844 10.043 17.7305 10.2715 14.3535 12.709C13.9219 13.0137 13.084 13.7754 12.5 13.75Z" fill="#0D0D0D"/>
</svg>
