<svg width="26" height="26" viewBox="0 0 26 26" fill="none" xmlns="http://www.w3.org/2000/svg">
<circle cx="13" cy="13" r="13" fill="#FFBE59"/>
<path d="M13.0003 12.5832C12.4478 12.5832 11.9179 12.3637 11.5272 11.973C11.1365 11.5823 10.917 11.0524 10.917 10.4998C10.917 9.9473 11.1365 9.4174 11.5272 9.0267C11.9179 8.636 12.4478 8.4165 13.0003 8.4165C13.5529 8.4165 14.0828 8.636 14.4735 9.0267C14.8642 9.4174 15.0837 9.9473 15.0837 10.4998C15.0837 10.7734 15.0298 11.0443 14.9251 11.2971C14.8204 11.5499 14.6669 11.7795 14.4735 11.973C14.28 12.1664 14.0503 12.3199 13.7976 12.4246C13.5448 12.5293 13.2739 12.5832 13.0003 12.5832ZM13.0003 4.6665C11.4532 4.6665 9.9695 5.28109 8.87554 6.37505C7.78157 7.46901 7.16699 8.95274 7.16699 10.4998C7.16699 14.8748 13.0003 21.3332 13.0003 21.3332C13.0003 21.3332 18.8337 14.8748 18.8337 10.4998C18.8337 8.95274 18.2191 7.46901 17.1251 6.37505C16.0312 5.28109 14.5474 4.6665 13.0003 4.6665Z" fill="black"/>
</svg>
