<svg width="197" height="48" viewBox="0 0 197 48" fill="none" xmlns="http://www.w3.org/2000/svg">
<g clip-path="url(#clip0_1427_56)">
<path d="M45.1294 43.6722C43.3766 45.0351 41.4023 45.6201 39.2104 45.3726C37.4051 45.1693 35.8569 44.4032 34.5577 43.1354C32.1809 40.8148 31.2265 36.5632 33.7711 32.9358C32.9124 32.455 31.9908 32.1631 31.0325 31.9885C29.7635 31.7579 28.4905 31.7566 27.2267 32.0406C26.7207 32.154 26.3405 32.0289 26.0246 31.5911C25.3835 30.7012 24.7057 29.8373 24.0057 28.9109C23.4629 29.6275 22.9385 30.3168 22.4155 31.0074C22.3775 31.0582 22.3316 31.1051 22.3027 31.1611C21.8701 31.9872 21.2395 32.1657 20.3166 31.9833C18.2466 31.5729 16.2565 31.9546 14.3608 32.8537C14.3202 32.8732 14.2887 32.9136 14.2533 32.9436C17.1703 37.13 15.4516 41.9823 12.2921 44.0996C9.17988 46.1856 4.74747 45.7478 2.20156 43.0364C-0.55935 40.0943 -0.745508 35.7723 1.75452 32.6817C4.18375 29.6797 9.0042 28.5695 12.7982 31.4634C15.2851 28.9917 17.7668 26.5252 20.2956 24.0118C20.2222 23.914 20.0937 23.7381 19.9639 23.5662C15.0714 17.0917 10.1762 10.6186 5.28235 4.14545C5.18665 4.01906 5.08439 3.89398 5.00573 3.75717C4.79729 3.39103 4.84055 3.04054 5.15912 2.76952C5.479 2.4985 5.83558 2.51544 6.16726 2.76822C6.30622 2.87376 6.42683 3.00275 6.55137 3.12653C12.2358 8.77489 17.9188 14.4232 23.6019 20.0742C23.7251 20.1967 23.8287 20.3387 24.0529 20.6045C24.2089 20.3726 24.2915 20.1928 24.4239 20.0625C30.1043 14.4102 35.7874 8.76055 41.4731 3.1135C41.6186 2.96887 41.7681 2.81773 41.9398 2.70698C42.2571 2.50241 42.59 2.53108 42.8654 2.77994C43.1393 3.02751 43.2128 3.34804 43.0358 3.68811C42.9558 3.84186 42.847 3.98258 42.7421 4.122C37.8207 10.6342 32.898 17.1451 27.9766 23.6574C27.8731 23.7955 27.7734 23.9362 27.6934 24.0456C30.2079 26.5408 32.6922 29.006 35.1817 31.4765C39.1081 28.5226 43.5785 29.8947 45.7652 32.1279C48.1866 34.5997 49.044 38.9907 46.2752 42.5595C45.8032 43.2044 45.1294 43.6722 45.1294 43.6722ZM31.6093 30.5149C25.609 24.5512 19.5313 18.5093 13.4523 12.4688C13.6175 12.5652 13.7276 12.719 13.8417 12.8701C18.1207 18.5289 22.405 24.1838 26.6656 29.8556C27.0039 30.3064 27.3106 30.4654 27.8783 30.365C29.1827 30.137 30.4871 30.2934 31.6093 30.5149ZM7.89512 43.3452C11.1096 43.3282 13.6752 40.7575 13.6503 37.5769C13.6254 34.3847 11.0454 31.8556 7.83088 31.8726C4.63473 31.8882 2.07702 34.4746 2.10193 37.6642C2.12421 40.8239 4.71339 43.3621 7.89512 43.3452ZM40.1543 43.3452C43.3583 43.3282 45.937 40.7484 45.9186 37.5769C45.9003 34.4055 43.2967 31.8569 40.09 31.8726C36.9227 31.8869 34.3362 34.4733 34.3453 37.6173C34.3532 40.7901 36.962 43.3621 40.1543 43.3452ZM16.2644 30.5305C16.2329 30.5227 16.2657 30.5422 16.2945 30.5357C17.7314 30.2386 19.1721 30.1683 20.626 30.4171C20.7453 30.438 20.938 30.3481 21.0167 30.2478C21.6905 29.3839 22.346 28.5044 23.0238 27.6093C22.46 26.8627 21.9055 26.1278 21.3877 25.4437C19.6624 27.1545 17.9516 28.8536 16.2644 30.5305ZM34.5053 12.4206C31.528 15.3796 28.3738 18.5146 25.2865 21.583C25.6824 21.9883 26.1216 22.4378 26.5778 22.9055C29.2627 19.3537 31.9646 15.7809 34.5053 12.4206Z" fill="#FFBE59"/>
<path d="M12.7603 37.6078C12.7603 40.2815 10.5709 42.4613 7.88082 42.4639C5.18677 42.4665 2.98695 40.2802 2.9922 37.6013C2.99744 34.9263 5.18939 32.7516 7.87951 32.7529C10.5696 32.7555 12.759 34.9341 12.7603 37.6078ZM5.79899 40.8795C7.13619 41.7786 8.98204 41.6183 10.0151 40.8274C9.61524 40.3192 9.21408 39.8111 8.81423 39.3029C8.22823 39.6104 7.64484 39.63 7.05228 39.3655C6.63277 39.8723 6.2185 40.3714 5.79899 40.8795ZM5.06091 40.2697C5.0714 40.2476 5.07927 40.2215 5.095 40.202C5.49485 39.7173 5.89469 39.2339 6.29716 38.7479C6.2657 38.6984 6.23817 38.6567 6.21195 38.6137C5.99039 38.258 5.89207 37.871 5.93795 37.4553C5.94844 37.3537 5.92091 37.3133 5.83177 37.2768C5.28771 37.054 4.74497 36.826 4.20091 36.5993C4.17601 36.5889 4.14716 36.585 4.12095 36.5784C3.72241 37.8697 4.14323 39.3824 5.06091 40.2697ZM10.7597 40.1981C11.6145 39.4228 12.0864 37.398 11.6105 36.5745C11.0363 36.8156 10.4608 37.0553 9.88792 37.3003C9.85121 37.3159 9.80795 37.3798 9.81188 37.4175C9.85908 37.8241 9.77124 38.1993 9.57722 38.555C9.55755 38.5915 9.55755 38.6658 9.58246 38.6971C9.97051 39.1961 10.3625 39.6925 10.7597 40.1981ZM8.37637 33.7692C8.37243 33.7836 8.36588 33.7979 8.36588 33.8122C8.36457 34.4233 8.36326 35.0357 8.3685 35.6468C8.3685 35.6859 8.42487 35.7471 8.46813 35.7615C8.81161 35.88 9.1092 36.0677 9.34255 36.3452C9.40155 36.4156 9.45005 36.4273 9.53527 36.3908C9.86039 36.2488 10.1894 36.1146 10.5159 35.9765C10.7571 35.8748 10.9983 35.7732 11.2408 35.6716C10.7296 34.7061 9.57329 33.8826 8.37637 33.7692ZM7.38789 33.7692C6.14378 33.8774 4.93244 34.7947 4.52079 35.6781C5.10024 35.9204 5.67969 36.1641 6.26177 36.4012C6.29454 36.4143 6.36664 36.3869 6.39417 36.3556C6.63408 36.082 6.92381 35.8827 7.2699 35.7745C7.36954 35.7432 7.39051 35.6963 7.3892 35.6038C7.38396 35.2911 7.38789 34.9771 7.38789 34.6631C7.38789 34.3647 7.38789 34.0676 7.38789 33.7692ZM8.85225 37.6156C8.85487 37.0788 8.41832 36.6397 7.87951 36.6371C7.34594 36.6358 6.90545 37.0644 6.8989 37.5921C6.89234 38.129 7.32628 38.5733 7.86378 38.5785C8.4039 38.5837 8.84832 38.1498 8.85225 37.6156Z" fill="#FFBE59"/>
<path d="M45.0161 37.6078C45.0161 40.2815 42.8268 42.4613 40.1367 42.4639C37.4426 42.4665 35.2428 40.2802 35.2481 37.6013C35.2533 34.9263 37.4452 32.7516 40.1354 32.7529C42.8255 32.7555 45.0161 34.9341 45.0161 37.6078ZM38.0549 40.8795C39.392 41.7786 41.2379 41.6183 42.2709 40.8274C41.8711 40.3192 41.4699 39.8111 41.0701 39.3029C40.4841 39.6104 39.9007 39.63 39.3081 39.3655C38.8899 39.8723 38.4757 40.3714 38.0549 40.8795ZM37.3181 40.2697C37.3286 40.2476 37.3364 40.2215 37.3522 40.202C37.752 39.7173 38.1519 39.2339 38.5543 38.7479C38.5229 38.6984 38.4953 38.6567 38.4691 38.6137C38.2476 38.258 38.1492 37.871 38.1951 37.4553C38.2056 37.3537 38.1781 37.3133 38.0889 37.2768C37.5449 37.054 37.0021 36.826 36.4581 36.5993C36.4332 36.5889 36.4043 36.585 36.3781 36.5784C35.9796 37.8697 36.3991 39.3824 37.3181 40.2697ZM43.0169 40.1981C43.8716 39.4228 44.3436 37.398 43.8677 36.5745C43.2935 36.8156 42.718 37.0553 42.1451 37.3003C42.1084 37.3159 42.0651 37.3798 42.0691 37.4175C42.1162 37.8241 42.0284 38.1993 41.8344 38.555C41.8147 38.5915 41.8147 38.6658 41.8396 38.6971C42.2264 39.1961 42.6197 39.6925 43.0169 40.1981ZM40.6335 33.7692C40.6296 33.7836 40.623 33.7979 40.623 33.8122C40.6217 34.4233 40.6204 35.0357 40.6257 35.6468C40.6257 35.6859 40.682 35.7471 40.7253 35.7615C41.0688 35.88 41.3664 36.0677 41.5997 36.3452C41.6587 36.4156 41.7072 36.4273 41.7924 36.3908C42.1176 36.2488 42.4466 36.1146 42.773 35.9765C43.0143 35.8748 43.2555 35.7732 43.498 35.6716C42.9867 34.7061 41.8305 33.8826 40.6335 33.7692ZM39.6438 33.7692C38.3996 33.8774 37.1883 34.7947 36.7767 35.6781C37.3561 35.9204 37.9356 36.1641 38.5176 36.4012C38.5504 36.4143 38.6225 36.3869 38.65 36.3556C38.8899 36.082 39.1797 35.8827 39.5258 35.7745C39.6254 35.7432 39.6464 35.6963 39.6451 35.6038C39.6398 35.2911 39.6438 34.9771 39.6438 34.6631C39.6438 34.3647 39.6438 34.0676 39.6438 33.7692ZM41.1094 37.6156C41.112 37.0788 40.6755 36.6397 40.1367 36.6371C39.6031 36.6358 39.1626 37.0644 39.1561 37.5921C39.1495 38.129 39.5834 38.5733 40.1209 38.5785C40.6611 38.5837 41.1055 38.1498 41.1094 37.6156Z" fill="#FFBE59"/>
</g>
<path d="M68.72 15.38C69.4933 15.38 70.2133 15.5667 70.88 15.94C71.5733 16.2867 72.1333 16.78 72.56 17.42C72.8 17.7933 72.9867 18.1933 73.12 18.62C73.28 19.0467 73.36 19.5 73.36 19.98V22.3H70.44H69.64V21.94C69.88 21.94 70.0667 21.74 70.2 21.34C70.3333 20.94 70.4133 20.4733 70.44 19.94C70.4133 19.4333 70.2 19.0067 69.8 18.66C69.4267 18.3133 68.9733 18.14 68.44 18.14C67.88 18.14 67.4 18.3267 67 18.7C66.6267 19.0467 66.44 19.4733 66.44 19.98V21.34C66.44 21.8733 66.6667 22.3 67.12 22.62L71.56 25.9C72.1733 26.38 72.6267 27.0067 72.92 27.78C73.2133 28.5267 73.36 29.2067 73.36 29.82V31.06C73.36 31.5133 73.28 31.9667 73.12 32.42C72.9867 32.8467 72.8 33.2467 72.56 33.62C72.1333 34.2333 71.5733 34.7267 70.88 35.1C70.2133 35.4467 69.4933 35.62 68.72 35.62C66.9867 35.6733 65.68 35.2067 64.8 34.22C64.4 33.7933 64.0933 33.3133 63.88 32.78C63.64 32.2467 63.52 31.6733 63.52 31.06V28.7H67.2V29.06C66.9867 29.06 66.8 29.2733 66.64 29.7C66.5067 30.1 66.44 30.5667 66.44 31.1C66.4667 31.58 66.6667 31.9933 67.04 32.34C67.44 32.6867 67.9067 32.86 68.44 32.86C68.9733 32.86 69.44 32.6867 69.84 32.34C70.24 31.9933 70.44 31.5667 70.44 31.06V29.82C70.44 29.5267 70.3733 29.2333 70.24 28.94C70.1067 28.62 69.96 28.3933 69.8 28.26L65.36 24.94C64.7733 24.4867 64.32 23.9533 64 23.34C63.68 22.7 63.52 22.0333 63.52 21.34V19.98C63.52 19.3667 63.64 18.7933 63.88 18.26C64.0933 17.7 64.4 17.2067 64.8 16.78C65.68 15.7933 66.9867 15.3267 68.72 15.38ZM77.6491 18.3C77.5691 18.3 77.3957 18.3267 77.1291 18.38C76.8624 18.4067 76.5824 18.4467 76.2891 18.5C75.9957 18.5533 75.7291 18.6333 75.4891 18.74C75.2757 18.8467 75.1691 18.9533 75.1691 19.06H74.8091V18.3L75.3691 15.46H84.3691L84.9291 18.3V19.06H84.5691C84.5691 18.9533 84.4491 18.8467 84.2091 18.74C83.9957 18.6333 83.7424 18.5533 83.4491 18.5C83.1557 18.4467 82.8757 18.4067 82.6091 18.38C82.3424 18.3267 82.1691 18.3 82.0891 18.3H81.2891V32.66C81.2891 32.7933 81.3024 32.9933 81.3291 33.26C81.3824 33.5267 81.4357 33.8067 81.4891 34.1C81.5424 34.3667 81.6091 34.6067 81.6891 34.82C81.7957 35.0333 81.9157 35.14 82.0491 35.14V35.5H77.6891V35.14C77.7957 35.14 77.8891 35.0467 77.9691 34.86C78.0757 34.6467 78.1557 34.4067 78.2091 34.14C78.2891 33.8733 78.3424 33.6067 78.3691 33.34C78.4224 33.0733 78.4491 32.8733 78.4491 32.74V18.3H77.6491ZM95.8666 31.78C95.8666 32.2867 95.7732 32.7667 95.5866 33.22C95.3999 33.6733 95.1332 34.0733 94.7866 34.42C94.4666 34.74 94.0799 35.0067 93.6266 35.22C93.1732 35.4067 92.6932 35.5 92.1866 35.5H89.9866C89.4799 35.5 88.9999 35.4067 88.5466 35.22C88.0932 35.0067 87.6932 34.74 87.3466 34.42C87.0266 34.0733 86.7599 33.6733 86.5466 33.22C86.3599 32.7667 86.2666 32.2867 86.2666 31.78V19.18C86.2132 18.1667 86.5199 17.3133 87.1866 16.62C87.8532 15.9267 88.7866 15.5533 89.9866 15.5H92.1866C92.6932 15.5 93.1732 15.5933 93.6266 15.78C94.0799 15.9667 94.4666 16.2333 94.7866 16.58C95.1332 16.9 95.3999 17.2867 95.5866 17.74C95.7732 18.1933 95.8666 18.6733 95.8666 19.18V31.78ZM89.1066 31.78C89.1066 32.02 89.1866 32.2333 89.3466 32.42C89.5332 32.58 89.7466 32.66 89.9866 32.66H92.1866C92.3999 32.66 92.5866 32.58 92.7466 32.42C92.9332 32.2333 93.0266 32.02 93.0266 31.78V19.18C93.0266 18.9667 92.9332 18.78 92.7466 18.62C92.5866 18.4333 92.3999 18.34 92.1866 18.34H89.9866C89.7466 18.34 89.5332 18.4333 89.3466 18.62C89.1866 18.78 89.1066 18.9667 89.1066 19.18V31.78ZM103.474 15.5C104.194 15.5533 104.834 15.74 105.394 16.06C105.874 16.3533 106.314 16.7933 106.714 17.38C107.14 17.9667 107.354 18.82 107.354 19.94V22.78C107.354 24.5667 106.86 25.9267 105.874 26.86C105.34 27.3667 104.807 27.6733 104.274 27.78C103.74 27.86 103.394 27.9 103.234 27.9H101.234V32.7C101.234 32.8333 101.247 33.0333 101.274 33.3C101.327 33.5667 101.38 33.8333 101.434 34.1C101.514 34.3667 101.594 34.6067 101.674 34.82C101.754 35.0333 101.86 35.14 101.994 35.14V35.5H97.6338V35.14C97.7404 35.14 97.8338 35.0467 97.9138 34.86C98.0204 34.6467 98.1004 34.4067 98.1538 34.14C98.2338 33.8733 98.2871 33.6067 98.3138 33.34C98.3671 33.0733 98.3938 32.8733 98.3938 32.74V18.34C98.3938 18.26 98.3804 18.0867 98.3538 17.82C98.3271 17.5533 98.2738 17.2733 98.1938 16.98C98.1404 16.6867 98.0604 16.4333 97.9538 16.22C97.8738 15.98 97.7671 15.86 97.6338 15.86V15.5H103.474ZM104.474 19.94C104.474 19.3267 104.327 18.9267 104.034 18.74C103.74 18.5267 103.487 18.3933 103.274 18.34H101.234V25.06H103.314C103.394 25.06 103.5 25.0333 103.634 24.98C103.767 24.9267 103.887 24.82 103.994 24.66C104.127 24.5 104.234 24.2733 104.314 23.98C104.42 23.6867 104.474 23.2867 104.474 22.78V19.94ZM120.449 26.66H120.169C120.169 26.58 120.089 26.5 119.929 26.42C119.769 26.34 119.583 26.2867 119.369 26.26C119.156 26.2067 118.943 26.1667 118.729 26.14C118.543 26.1133 118.409 26.1 118.329 26.1H110.769C110.689 26.1 110.543 26.1133 110.329 26.14C110.143 26.1667 109.929 26.2067 109.689 26.26C109.476 26.2867 109.289 26.34 109.129 26.42C108.969 26.5 108.889 26.58 108.889 26.66H108.609V23.38H108.889C108.889 23.46 108.969 23.54 109.129 23.62C109.289 23.7 109.476 23.7667 109.689 23.82C109.929 23.8467 110.143 23.8733 110.329 23.9C110.543 23.9267 110.689 23.94 110.769 23.94H118.409C118.516 23.94 118.663 23.9267 118.849 23.9C119.063 23.8733 119.263 23.8333 119.449 23.78C119.663 23.7267 119.836 23.6733 119.969 23.62C120.103 23.54 120.169 23.46 120.169 23.38H120.449V26.66ZM133.618 32.66C133.618 32.74 133.631 32.9133 133.658 33.18C133.711 33.4467 133.764 33.7267 133.818 34.02C133.871 34.3133 133.938 34.58 134.018 34.82C134.124 35.0333 134.244 35.14 134.378 35.14V35.5H130.578L126.858 23.1V32.78C126.858 32.94 126.871 33.1533 126.898 33.42C126.951 33.66 127.004 33.9133 127.058 34.18C127.138 34.4467 127.218 34.6733 127.298 34.86C127.378 35.0467 127.484 35.14 127.618 35.14V35.5H123.258V35.14C123.391 35.14 123.498 35.0333 123.578 34.82C123.684 34.58 123.764 34.3133 123.818 34.02C123.898 33.7267 123.951 33.4467 123.978 33.18C124.004 32.9133 124.018 32.74 124.018 32.66V18.38C124.018 18.3 124.004 18.1267 123.978 17.86C123.951 17.5667 123.898 17.2733 123.818 16.98C123.764 16.6867 123.684 16.4333 123.578 16.22C123.498 15.98 123.391 15.86 123.258 15.86V15.5H127.138L130.778 27.54V18.38C130.778 18.3 130.764 18.1267 130.738 17.86C130.711 17.5667 130.658 17.2733 130.578 16.98C130.524 16.6867 130.444 16.4333 130.338 16.22C130.258 15.98 130.151 15.86 130.018 15.86V15.5H134.378V15.86C134.244 15.86 134.124 15.98 134.018 16.22C133.938 16.4333 133.871 16.6867 133.818 16.98C133.764 17.2733 133.711 17.5667 133.658 17.86C133.631 18.1267 133.618 18.3 133.618 18.38V18.34V32.74V32.66ZM147.637 26.66H147.357C147.357 26.58 147.277 26.5 147.117 26.42C146.957 26.34 146.77 26.2867 146.557 26.26C146.344 26.2067 146.13 26.1667 145.917 26.14C145.73 26.1133 145.597 26.1 145.517 26.1H137.957C137.877 26.1 137.73 26.1133 137.517 26.14C137.33 26.1667 137.117 26.2067 136.877 26.26C136.664 26.2867 136.477 26.34 136.317 26.42C136.157 26.5 136.077 26.58 136.077 26.66H135.797V23.38H136.077C136.077 23.46 136.157 23.54 136.317 23.62C136.477 23.7 136.664 23.7667 136.877 23.82C137.117 23.8467 137.33 23.8733 137.517 23.9C137.73 23.9267 137.877 23.94 137.957 23.94H145.597C145.704 23.94 145.85 23.9267 146.037 23.9C146.25 23.8733 146.45 23.8333 146.637 23.78C146.85 23.7267 147.024 23.6733 147.157 23.62C147.29 23.54 147.357 23.46 147.357 23.38H147.637V26.66ZM160.085 31.82C160.085 32.3267 159.979 32.8067 159.765 33.26C159.579 33.7133 159.312 34.1133 158.965 34.46C158.645 34.78 158.259 35.0333 157.805 35.22C157.352 35.4067 156.872 35.5 156.365 35.5H154.165C153.659 35.5 153.179 35.4067 152.725 35.22C152.272 35.0333 151.872 34.78 151.525 34.46C151.205 34.1133 150.939 33.7133 150.725 33.26C150.539 32.8067 150.445 32.3267 150.445 31.82V19.22C150.445 18.7133 150.539 18.2333 150.725 17.78C150.939 17.3267 151.205 16.94 151.525 16.62C151.872 16.2733 152.272 16.0067 152.725 15.82C153.179 15.6067 153.659 15.5 154.165 15.5H156.365C156.872 15.5 157.352 15.6067 157.805 15.82C158.259 16.0067 158.645 16.2733 158.965 16.62C159.312 16.94 159.579 17.3267 159.765 17.78C159.979 18.2333 160.085 18.7133 160.085 19.22V21.3H156.485V20.94C156.965 20.94 157.205 20.4467 157.205 19.46V19.22C157.205 18.98 157.125 18.78 156.965 18.62C156.805 18.4333 156.605 18.34 156.365 18.34H154.165C153.925 18.34 153.712 18.4333 153.525 18.62C153.365 18.78 153.285 18.98 153.285 19.22V31.82C153.285 32.0333 153.365 32.2333 153.525 32.42C153.712 32.58 153.925 32.66 154.165 32.66H156.365C156.605 32.66 156.805 32.58 156.965 32.42C157.125 32.2333 157.205 32.0333 157.205 31.82V31.18C157.152 30.94 157.085 30.7133 157.005 30.5C156.952 30.3133 156.885 30.1533 156.805 30.02C156.725 29.86 156.619 29.78 156.485 29.78V29.42H160.085V31.82ZM161.461 35.5V35.14C161.568 35.14 161.661 35.0467 161.741 34.86C161.848 34.6467 161.928 34.4067 161.981 34.14C162.061 33.8467 162.114 33.58 162.141 33.34C162.194 33.0733 162.221 32.8733 162.221 32.74V18.3C162.221 18.1667 162.194 17.9667 162.141 17.7C162.114 17.4333 162.061 17.1667 161.981 16.9C161.928 16.6067 161.848 16.3667 161.741 16.18C161.661 15.9667 161.568 15.86 161.461 15.86V15.5H165.821V15.86C165.688 15.86 165.568 15.98 165.461 16.22C165.381 16.4333 165.301 16.6867 165.221 16.98C165.168 17.2733 165.128 17.5667 165.101 17.86C165.074 18.1267 165.061 18.3 165.061 18.38V22.1H168.981V18.3C168.981 18.1667 168.954 17.9667 168.901 17.7C168.874 17.4333 168.834 17.1667 168.781 16.9C168.728 16.6067 168.648 16.3667 168.541 16.18C168.434 15.9667 168.328 15.86 168.221 15.86V15.5H172.581V15.86C172.474 15.86 172.368 15.9533 172.261 16.14C172.181 16.3267 172.114 16.5533 172.061 16.82C172.008 17.0867 171.954 17.3533 171.901 17.62C171.874 17.86 171.848 18.06 171.821 18.22V32.82C171.848 32.98 171.874 33.1933 171.901 33.46C171.954 33.7 172.008 33.9533 172.061 34.22C172.114 34.46 172.181 34.6733 172.261 34.86C172.368 35.0467 172.474 35.14 172.581 35.14V35.5H168.981H168.221V35.14C168.354 35.14 168.461 35.0333 168.541 34.82C168.648 34.58 168.728 34.3133 168.781 34.02C168.861 33.7267 168.914 33.4467 168.941 33.18C168.968 32.9133 168.981 32.74 168.981 32.66V32.74V24.98H165.061V32.82C165.061 32.98 165.074 33.1933 165.101 33.46C165.154 33.7 165.208 33.9533 165.261 34.22C165.341 34.46 165.421 34.6733 165.501 34.86C165.608 35.0467 165.714 35.14 165.821 35.14V35.5H161.461ZM183.835 31.78C183.835 32.2867 183.742 32.7667 183.555 33.22C183.369 33.6733 183.102 34.0733 182.755 34.42C182.435 34.74 182.049 35.0067 181.595 35.22C181.142 35.4067 180.662 35.5 180.155 35.5H177.955C177.449 35.5 176.969 35.4067 176.515 35.22C176.062 35.0067 175.662 34.74 175.315 34.42C174.995 34.0733 174.729 33.6733 174.515 33.22C174.329 32.7667 174.235 32.2867 174.235 31.78V19.18C174.182 18.1667 174.489 17.3133 175.155 16.62C175.822 15.9267 176.755 15.5533 177.955 15.5H180.155C180.662 15.5 181.142 15.5933 181.595 15.78C182.049 15.9667 182.435 16.2333 182.755 16.58C183.102 16.9 183.369 17.2867 183.555 17.74C183.742 18.1933 183.835 18.6733 183.835 19.18V31.78ZM177.075 31.78C177.075 32.02 177.155 32.2333 177.315 32.42C177.502 32.58 177.715 32.66 177.955 32.66H180.155C180.369 32.66 180.555 32.58 180.715 32.42C180.902 32.2333 180.995 32.02 180.995 31.78V19.18C180.995 18.9667 180.902 18.78 180.715 18.62C180.555 18.4333 180.369 18.34 180.155 18.34H177.955C177.715 18.34 177.502 18.4333 177.315 18.62C177.155 18.78 177.075 18.9667 177.075 19.18V31.78ZM191.442 15.5C192.163 15.5533 192.803 15.74 193.363 16.06C193.843 16.3533 194.283 16.7933 194.683 17.38C195.109 17.9667 195.323 18.82 195.323 19.94V22.78C195.323 24.5667 194.829 25.9267 193.843 26.86C193.309 27.3667 192.776 27.6733 192.243 27.78C191.709 27.86 191.363 27.9 191.203 27.9H189.203V32.7C189.203 32.8333 189.216 33.0333 189.243 33.3C189.296 33.5667 189.349 33.8333 189.403 34.1C189.483 34.3667 189.563 34.6067 189.643 34.82C189.723 35.0333 189.829 35.14 189.963 35.14V35.5H185.603V35.14C185.709 35.14 185.803 35.0467 185.883 34.86C185.989 34.6467 186.069 34.4067 186.123 34.14C186.203 33.8733 186.256 33.6067 186.283 33.34C186.336 33.0733 186.363 32.8733 186.363 32.74V18.34C186.363 18.26 186.349 18.0867 186.323 17.82C186.296 17.5533 186.243 17.2733 186.163 16.98C186.109 16.6867 186.029 16.4333 185.923 16.22C185.843 15.98 185.736 15.86 185.603 15.86V15.5H191.442ZM192.443 19.94C192.443 19.3267 192.296 18.9267 192.003 18.74C191.709 18.5267 191.456 18.3933 191.243 18.34H189.203V25.06H191.283C191.363 25.06 191.469 25.0333 191.603 24.98C191.736 24.9267 191.856 24.82 191.963 24.66C192.096 24.5 192.203 24.2733 192.283 23.98C192.389 23.6867 192.443 23.2867 192.443 22.78V19.94Z" fill="#FFBE59"/>
<defs>
<clipPath id="clip0_1427_56">
<rect width="48" height="48" fill="white"/>
</clipPath>
</defs>
</svg>
