<svg width="26" height="26" viewBox="0 0 26 26" fill="none" xmlns="http://www.w3.org/2000/svg">
<circle cx="13" cy="13" r="13" fill="#FFBE59"/>
<path d="M18.5176 6.25977C18.7969 6.33594 19 6.56445 19 6.84375C19 13.3691 13.7188 18.625 7.21875 18.625C6.91406 18.625 6.68555 18.4473 6.60938 18.168L6 15.5273C5.94922 15.248 6.07617 14.9434 6.35547 14.8164L9.19922 13.5977C9.45312 13.4961 9.73242 13.5723 9.91016 13.7754L11.1797 15.3242C13.1602 14.3848 14.7598 12.7598 15.6738 10.8301L14.125 9.56055C13.9219 9.38281 13.8457 9.10352 13.9473 8.84961L15.166 6.00586C15.293 5.72656 15.5977 5.57422 15.877 5.65039L18.5176 6.25977Z" fill="#0D0D0D"/>
</svg>
