<svg width="24" height="24" viewBox="0 0 24 24" fill="none" xmlns="http://www.w3.org/2000/svg">
<path fill-rule="evenodd" clip-rule="evenodd" d="M12.003 2C12.4172 2 12.753 2.33579 12.753 2.75V3.75C12.753 4.16421 12.4172 4.5 12.003 4.5C11.5888 4.5 11.253 4.16421 11.253 3.75V2.75C11.253 2.33579 11.5888 2 12.003 2ZM18.003 12C18.003 15.3137 15.3167 18 12.003 18C8.68927 18 6.00297 15.3137 6.00297 12C6.00297 8.68629 8.68927 6 12.003 6C15.3167 6 18.003 8.68629 18.003 12ZM12.753 20.25C12.753 19.8358 12.4172 19.5 12.003 19.5C11.5888 19.5 11.253 19.8358 11.253 20.25V21.25C11.253 21.6642 11.5888 22 12.003 22C12.4172 22 12.753 21.6642 12.753 21.25V20.25ZM3.34282 7.00002C3.54992 6.6413 4.00862 6.51839 4.36734 6.7255L5.23336 7.2255C5.59208 7.4326 5.71499 7.8913 5.50788 8.25002C5.30078 8.60874 4.84208 8.73164 4.48336 8.52454L3.61734 8.02454C3.25862 7.81743 3.13571 7.35874 3.34282 7.00002ZM19.5226 15.4755C19.1639 15.2684 18.7052 15.3913 18.4981 15.75C18.291 16.1087 18.4139 16.5674 18.7726 16.7745L19.6386 17.2745C19.9974 17.4816 20.456 17.3587 20.6632 17C20.8703 16.6413 20.7474 16.1826 20.3886 15.9755L19.5226 15.4755ZM20.6631 6.99998C20.8702 7.3587 20.7473 7.8174 20.3886 8.0245L19.5226 8.5245C19.1639 8.73161 18.7052 8.6087 18.4981 8.24998C18.291 7.89126 18.4139 7.43257 18.7726 7.22546L19.6386 6.72546C19.9973 6.51836 20.456 6.64126 20.6631 6.99998ZM5.23334 16.7745C5.59206 16.5674 5.71496 16.1087 5.50786 15.75C5.30075 15.3913 4.84206 15.2684 4.48334 15.4755L3.61731 15.9755C3.25859 16.1826 3.13569 16.6413 3.34279 17C3.5499 17.3587 4.00859 17.4816 4.36731 17.2745L5.23334 16.7745Z" fill="white"/>
</svg>
