<svg width="25" height="24" viewBox="0 0 25 24" fill="none" xmlns="http://www.w3.org/2000/svg">
<path d="M4.95549 13.88L4.38393 13.3944H4.38393L4.95549 13.88ZM5.83476 11.8385L5.08953 11.7541L5.83476 11.8385ZM19.1652 11.8385L19.9105 11.7541L19.1652 11.8385ZM20.0445 13.88L20.6161 13.3944L20.0445 13.88ZM18.8204 8.79403L18.0751 8.87846V8.87846L18.8204 8.79403ZM6.17964 8.79403L6.92487 8.87846L6.17964 8.79403ZM16.2023 19.2632C16.3477 18.8753 16.1511 18.4431 15.7632 18.2977C15.3753 18.1523 14.9431 18.3489 14.7977 18.7368L16.2023 19.2632ZM10.2023 18.7368C10.0569 18.3489 9.62467 18.1523 9.2368 18.2977C8.84893 18.4431 8.65234 18.8753 8.7977 19.2632L10.2023 18.7368ZM18.6699 16.25H6.33014V17.75H18.6699V16.25ZM18.0751 8.87846L18.42 11.9229L19.9105 11.7541L19.5656 8.70961L18.0751 8.87846ZM6.57999 11.9229L6.92487 8.87846L5.4344 8.70961L5.08953 11.7541L6.57999 11.9229ZM5.52706 14.3657C6.11173 13.6775 6.47775 12.8255 6.57999 11.9229L5.08953 11.7541C5.02038 12.3645 4.7732 12.9363 4.38393 13.3944L5.52706 14.3657ZM18.42 11.9229C18.5223 12.8255 18.8883 13.6775 19.4729 14.3657L20.6161 13.3944C20.2268 12.9363 19.9796 12.3645 19.9105 11.7541L18.42 11.9229ZM6.33014 16.25C5.44335 16.25 4.87926 15.1281 5.52706 14.3657L4.38393 13.3944C2.96491 15.0647 4.07828 17.75 6.33014 17.75V16.25ZM18.6699 17.75C20.9217 17.75 22.0351 15.0647 20.6161 13.3944L19.4729 14.3657C20.1207 15.1281 19.5567 16.25 18.6699 16.25V17.75ZM19.5656 8.70961C19.1504 5.04473 16.1279 2.25 12.5 2.25V3.75C15.3302 3.75 17.7419 5.93698 18.0751 8.87846L19.5656 8.70961ZM6.92487 8.87846C7.25808 5.93698 9.66977 3.75 12.5 3.75V2.25C8.87212 2.25 5.84956 5.04473 5.4344 8.70961L6.92487 8.87846ZM14.7977 18.7368C14.475 19.5979 13.5846 20.25 12.5 20.25V21.75C14.1855 21.75 15.6516 20.7325 16.2023 19.2632L14.7977 18.7368ZM12.5 20.25C11.4154 20.25 10.525 19.5979 10.2023 18.7368L8.7977 19.2632C9.34835 20.7325 10.8145 21.75 12.5 21.75V20.25Z" fill="#A4A4A4"/>
</svg>
