<svg width="25" height="24" viewBox="0 0 25 24" fill="none" xmlns="http://www.w3.org/2000/svg">
<path d="M13.0294 2C17.0225 2 19.019 2 20.2595 3.17157C21.5 4.34315 21.5 6.22876 21.5 10V14C21.5 17.7712 21.5 19.6569 20.2595 20.8284C19.019 22 17.0225 22 13.0294 22H11.9706C7.97751 22 5.98098 22 4.74049 20.8284C3.5 19.6569 3.5 17.7712 3.5 14V10C3.5 6.22876 3.5 4.34315 4.74049 3.17157C5.98098 2 7.97752 2 11.9706 2H13.0294Z" stroke="#A4A4A4" stroke-width="1.5" stroke-linecap="round"/>
<path d="M8.5 7H16.5" stroke="#A4A4A4" stroke-width="1.5" stroke-linecap="round"/>
<path d="M8.5 12H16.5" stroke="#A4A4A4" stroke-width="1.5" stroke-linecap="round"/>
<path d="M8.5 17H12.5" stroke="#A4A4A4" stroke-width="1.5" stroke-linecap="round"/>
</svg>
